<mxfile host="app.diagrams.net" modified="2020-12-04T05:45:21.368Z" agent="5.0 (Windows NT 10.0; Win64; x64) AppleWebKit/537.36 (KHTML, like Gecko) Chrome/87.0.4280.67 Safari/537.36 Edg/87.0.664.52" etag="gXSjcXnnPgvKpetvQH6C" version="13.10.6" type="github">
  <diagram id="-mnaV-Pqfqw7JuDCNJUH" name="Page-1">
    <mxGraphModel dx="1635" dy="902" grid="1" gridSize="10" guides="1" tooltips="1" connect="1" arrows="1" fold="1" page="1" pageScale="1" pageWidth="850" pageHeight="1100" math="0" shadow="0">
      <root>
        <mxCell id="0" />
        <mxCell id="1" parent="0" />
        <mxCell id="qgUR3_hhGZO0q8BCdR5i-14" value="" style="rounded=0;whiteSpace=wrap;html=1;" vertex="1" parent="1">
          <mxGeometry x="150" y="140" width="430" height="480" as="geometry" />
        </mxCell>
        <mxCell id="qgUR3_hhGZO0q8BCdR5i-5" style="rounded=0;orthogonalLoop=1;jettySize=auto;html=1;entryX=0;entryY=0.5;entryDx=0;entryDy=0;endArrow=none;endFill=0;" edge="1" parent="1" source="Vr40aO1YH7RdBKerdRvp-1" target="qgUR3_hhGZO0q8BCdR5i-2">
          <mxGeometry relative="1" as="geometry" />
        </mxCell>
        <mxCell id="Vr40aO1YH7RdBKerdRvp-1" value="Quản lý&amp;nbsp;" style="shape=umlActor;verticalLabelPosition=bottom;verticalAlign=top;html=1;outlineConnect=0;" parent="1" vertex="1">
          <mxGeometry x="50" y="330" width="30" height="60" as="geometry" />
        </mxCell>
        <mxCell id="Vr40aO1YH7RdBKerdRvp-4" value="Hiển thị danh mục sản phẩm" style="ellipse;whiteSpace=wrap;html=1;" parent="1" vertex="1">
          <mxGeometry x="380" y="230" width="120" height="80" as="geometry" />
        </mxCell>
        <mxCell id="qgUR3_hhGZO0q8BCdR5i-9" style="edgeStyle=none;rounded=0;orthogonalLoop=1;jettySize=auto;html=1;entryX=1;entryY=0.5;entryDx=0;entryDy=0;dashed=1;" edge="1" parent="1" source="Vr40aO1YH7RdBKerdRvp-9" target="qgUR3_hhGZO0q8BCdR5i-2">
          <mxGeometry relative="1" as="geometry" />
        </mxCell>
        <mxCell id="Vr40aO1YH7RdBKerdRvp-9" value="Tạo danh mục sản phẩm mới" style="ellipse;whiteSpace=wrap;html=1;" parent="1" vertex="1">
          <mxGeometry x="400" y="340" width="120" height="80" as="geometry" />
        </mxCell>
        <mxCell id="qgUR3_hhGZO0q8BCdR5i-7" style="edgeStyle=none;rounded=0;orthogonalLoop=1;jettySize=auto;html=1;entryX=1;entryY=1;entryDx=0;entryDy=0;dashed=1;" edge="1" parent="1" source="Vr40aO1YH7RdBKerdRvp-11" target="qgUR3_hhGZO0q8BCdR5i-2">
          <mxGeometry relative="1" as="geometry" />
        </mxCell>
        <mxCell id="Vr40aO1YH7RdBKerdRvp-11" value="Cập nhật danh mục sản phẩm" style="ellipse;whiteSpace=wrap;html=1;" parent="1" vertex="1">
          <mxGeometry x="330" y="480" width="120" height="80" as="geometry" />
        </mxCell>
        <mxCell id="qgUR3_hhGZO0q8BCdR5i-10" style="edgeStyle=none;rounded=0;orthogonalLoop=1;jettySize=auto;html=1;entryX=0;entryY=1;entryDx=0;entryDy=0;dashed=1;" edge="1" parent="1" source="qgUR3_hhGZO0q8BCdR5i-2" target="Vr40aO1YH7RdBKerdRvp-4">
          <mxGeometry relative="1" as="geometry" />
        </mxCell>
        <mxCell id="qgUR3_hhGZO0q8BCdR5i-2" value="Quản lý Sản phẩm" style="ellipse;whiteSpace=wrap;html=1;" vertex="1" parent="1">
          <mxGeometry x="170" y="330" width="120" height="80" as="geometry" />
        </mxCell>
        <mxCell id="qgUR3_hhGZO0q8BCdR5i-11" value="&amp;lt;&amp;lt;include&amp;gt;&amp;gt;" style="text;html=1;strokeColor=none;fillColor=none;align=center;verticalAlign=middle;whiteSpace=wrap;rounded=0;" vertex="1" parent="1">
          <mxGeometry x="310" y="290" width="40" height="20" as="geometry" />
        </mxCell>
        <mxCell id="qgUR3_hhGZO0q8BCdR5i-12" value="&amp;lt;&amp;lt;extend&amp;gt;&amp;gt;" style="text;html=1;strokeColor=none;fillColor=none;align=center;verticalAlign=middle;whiteSpace=wrap;rounded=0;" vertex="1" parent="1">
          <mxGeometry x="330" y="380" width="40" height="20" as="geometry" />
        </mxCell>
        <mxCell id="qgUR3_hhGZO0q8BCdR5i-13" value="&amp;lt;&amp;lt;extend&amp;gt;&amp;gt;" style="text;html=1;strokeColor=none;fillColor=none;align=center;verticalAlign=middle;whiteSpace=wrap;rounded=0;" vertex="1" parent="1">
          <mxGeometry x="270" y="460" width="40" height="20" as="geometry" />
        </mxCell>
      </root>
    </mxGraphModel>
  </diagram>
</mxfile>
